<svg xmlns="http://www.w3.org/2000/svg" viewBox="0 0 32 32" width="32" height="32">
  <!-- Background circle with gradient -->
  <defs>
    <linearGradient id="bgGradient" x1="0%" y1="0%" x2="100%" y2="100%">
      <stop offset="0%" style="stop-color:#14b8a6;stop-opacity:1" />
      <stop offset="100%" style="stop-color:#0d9488;stop-opacity:1" />
    </linearGradient>
    <linearGradient id="leafGradient" x1="0%" y1="0%" x2="100%" y2="100%">
      <stop offset="0%" style="stop-color:#22c55e;stop-opacity:1" />
      <stop offset="100%" style="stop-color:#16a34a;stop-opacity:1" />
    </linearGradient>
  </defs>
  
  <!-- Background circle -->
  <circle cx="16" cy="16" r="15" fill="url(#bgGradient)" stroke="#0f766e" stroke-width="1"/>
  
  <!-- Main leaf shape -->
  <path d="M16 6 C 20 6, 24 10, 24 16 C 24 22, 20 26, 16 26 C 12 26, 8 22, 8 16 C 8 10, 12 6, 16 6 Z" 
        fill="url(#leafGradient)" 
        stroke="#15803d" 
        stroke-width="0.5"/>
  
  <!-- Leaf vein lines -->
  <line x1="16" y1="8" x2="16" y2="24" stroke="#15803d" stroke-width="1" stroke-linecap="round"/>
  <line x1="12" y1="12" x2="20" y2="12" stroke="#15803d" stroke-width="0.8" stroke-linecap="round"/>
  <line x1="10" y1="16" x2="22" y2="16" stroke="#15803d" stroke-width="0.8" stroke-linecap="round"/>
  <line x1="12" y1="20" x2="20" y2="20" stroke="#15803d" stroke-width="0.8" stroke-linecap="round"/>
  
  <!-- Small accent dots -->
  <circle cx="12" cy="10" r="1" fill="#22c55e"/>
  <circle cx="20" cy="10" r="1" fill="#22c55e"/>
  <circle cx="14" cy="14" r="0.8" fill="#22c55e"/>
  <circle cx="18" cy="14" r="0.8" fill="#22c55e"/>
  <circle cx="14" cy="18" r="0.8" fill="#22c55e"/>
  <circle cx="18" cy="18" r="0.8" fill="#22c55e"/>
  <circle cx="12" cy="22" r="1" fill="#22c55e"/>
  <circle cx="20" cy="22" r="1" fill="#22c55e"/>
</svg>
